<?xml version="1.0" standalone="no"?>
<!DOCTYPE svg PUBLIC "-//W3C//DTD SVG 20010904//EN"
 "http://www.w3.org/TR/2001/REC-SVG-20010904/DTD/svg10.dtd">
<svg version="1.0" xmlns="http://www.w3.org/2000/svg"
 width="622.347223pt" height="599.541641pt" viewBox="0 0 622.347223 599.541641"
 preserveAspectRatio="xMidYMid meet">
<metadata>
Created by potrace 1.12, written by Peter Selinger 2001-2015
</metadata>
<g transform="translate(-210.500000,872.668944) scale(0.100000,-0.100000)"
fill="#000000" stroke="none">
<path d="M2397 8719 c-109 -26 -209 -109 -260 -217 l-32 -67 0 -2710 0 -2710
26 -55 c41 -85 99 -144 187 -187 l76 -38 2055 -3 c1502 -2 2072 0 2116 8 159
31 286 155 315 312 6 28 10 177 10 330 0 263 -1 280 -17 273 -63 -24 -199 -57
-295 -71 -148 -22 -398 -14 -543 16 -753 159 -1303 804 -1341 1572 -29 567
252 1120 730 1440 269 180 558 273 881 285 194 7 432 -24 559 -73 15 -6 16 55
16 784 0 757 -1 793 -20 854 -30 97 -96 173 -194 223 l-79 40 -2076 2 c-1183
0 -2092 -3 -2114 -8z m1222 -516 c16 -16 119 -161 229 -323 396 -585 463 -727
463 -986 0 -128 -19 -211 -79 -334 -39 -81 -60 -109 -142 -191 -83 -84 -108
-102 -190 -142 -118 -57 -209 -77 -343 -77 -524 0 -866 506 -692 1025 28 84
100 219 202 378 166 262 434 656 451 667 31 18 71 11 101 -17z m725 -2654 c61
-53 58 -130 -6 -184 l-30 -25 -753 0 -753 0 -31 25 c-40 34 -56 84 -41 129 11
33 42 69 70 79 8 3 351 6 762 6 l747 1 35 -31z m4 -653 c34 -31 37 -39 37 -86
0 -47 -3 -55 -37 -86 l-38 -34 -747 0 c-733 0 -749 0 -781 20 -46 28 -68 82
-53 131 6 21 25 49 42 63 l31 26 754 0 754 0 38 -34z m-19 -631 c30 -15 61
-69 61 -105 0 -34 -28 -79 -63 -100 -31 -19 -56 -20 -772 -20 -725 0 -741 0
-773 20 -40 25 -66 81 -57 126 3 20 20 45 41 63 l35 31 750 0 c637 0 754 -2
778 -15z"/>
<path d="M3480 7751 c-117 -174 -149 -270 -130 -388 21 -126 85 -209 303 -391
156 -130 189 -174 208 -277 8 -45 7 -74 -6 -136 -8 -43 -19 -87 -22 -96 -10
-25 82 43 129 97 88 99 135 244 123 380 -11 131 -51 223 -200 461 -84 134
-265 398 -291 423 -31 32 -51 19 -114 -73z"/>
<path d="M6130 6645 c-588 -93 -1060 -547 -1177 -1130 -25 -127 -25 -426 0
-545 119 -558 518 -982 1054 -1121 351 -90 769 -32 1064 147 l62 37 21 -24
c395 -459 722 -832 753 -860 132 -120 350 -61 408 110 27 78 14 162 -36 232
-11 16 -156 158 -322 316 -166 158 -350 334 -410 391 l-107 104 49 66 c137
183 229 406 268 646 20 126 13 413 -12 526 -42 189 -118 367 -220 520 -66 99
-209 246 -314 326 -97 73 -286 170 -406 209 -191 61 -471 82 -675 50z m360
-325 c366 -48 672 -264 833 -591 87 -176 124 -359 114 -559 -24 -467 -341
-859 -798 -986 -138 -38 -353 -44 -498 -15 -224 47 -384 134 -551 301 -168
168 -254 326 -300 550 -30 146 -24 360 14 500 34 124 110 277 186 378 230 306
621 471 1000 422z"/>
<path d="M6834 5770 c-23 -7 -116 -103 -349 -357 -174 -192 -321 -349 -325
-351 -4 -2 -74 69 -155 157 -157 172 -181 188 -258 178 -53 -7 -87 -33 -114
-87 -27 -53 -28 -82 -5 -132 21 -44 411 -471 455 -499 49 -30 125 -26 170 9
19 15 125 126 234 247 109 121 270 299 357 395 88 96 168 189 178 205 11 19
18 49 18 81 0 110 -101 186 -206 154z"/>
</g>
</svg>
